<mxfile host="app.diagrams.net" modified="2022-04-26T12:00:17.549Z" agent="5.0 (Windows NT 10.0; Win64; x64) AppleWebKit/537.36 (KHTML, like Gecko) Chrome/100.0.4896.127 Safari/537.36" etag="sDUD-gzP7QbZvowraGX-" version="17.4.6" type="github">
  <diagram name="Page-1" id="2ca16b54-16f6-2749-3443-fa8db7711227">
    <mxGraphModel dx="2350" dy="539" grid="1" gridSize="10" guides="1" tooltips="1" connect="1" arrows="1" fold="1" page="1" pageScale="1" pageWidth="1100" pageHeight="850" background="none" math="0" shadow="0">
      <root>
        <mxCell id="0" />
        <mxCell id="1" parent="0" />
        <mxCell id="2ed32ef02a7f4228-12" value="&lt;br&gt;&lt;br&gt;&lt;div style=&quot;color: rgb(0 , 0 , 0) ; font-family: &amp;#34;verdana&amp;#34; ; font-style: normal ; letter-spacing: normal ; text-align: left ; text-indent: 0px ; text-transform: none ; word-spacing: 0px ; box-sizing: border-box ; width: 180px ; background: rgb(228 , 228 , 228) ; padding: 2px&quot;&gt;&lt;b&gt;&lt;font style=&quot;font-size: 14px&quot;&gt;Offers&lt;/font&gt;&lt;/b&gt;&lt;/div&gt;&lt;table cellpadding=&quot;2&quot; cellspacing=&quot;0&quot; style=&quot;color: rgb(0 , 0 , 0) ; font-family: &amp;#34;verdana&amp;#34; ; font-size: 1em ; font-style: normal ; font-weight: 400 ; letter-spacing: normal ; text-align: left ; text-transform: none ; word-spacing: 0px ; background-color: rgb(248 , 249 , 250) ; width: 180px&quot;&gt;&lt;tbody&gt;&lt;tr&gt;&lt;td&gt;&lt;br&gt;&lt;/td&gt;&lt;td&gt;client_id&lt;br&gt;offer_type&lt;br&gt;offer_title&lt;/td&gt;&lt;/tr&gt;&lt;tr&gt;&lt;td&gt;&lt;span style=&quot;white-space: pre&quot;&gt;	&lt;/span&gt;&lt;br&gt;&lt;/td&gt;&lt;td&gt;location&lt;/td&gt;&lt;/tr&gt;&lt;tr&gt;&lt;td&gt;&lt;br&gt;&lt;/td&gt;&lt;td&gt;offer_details&lt;br&gt;&lt;/td&gt;&lt;/tr&gt;&lt;tr&gt;&lt;td&gt;&lt;br&gt;&lt;/td&gt;&lt;td&gt;created_at&lt;/td&gt;&lt;/tr&gt;&lt;tr&gt;&lt;td&gt;&lt;br&gt;&lt;/td&gt;&lt;td&gt;closing_at&lt;br&gt;apply_to&lt;br&gt;email_offer&lt;br&gt;phone_offer&lt;br&gt;add_offer_notes&lt;br&gt;&lt;br&gt;&lt;/td&gt;&lt;/tr&gt;&lt;/tbody&gt;&lt;/table&gt;" style="verticalAlign=top;align=left;overflow=fill;html=1;rounded=0;shadow=0;comic=0;labelBackgroundColor=none;strokeWidth=1;fontFamily=Verdana;fontSize=12" parent="1" vertex="1">
          <mxGeometry x="760" y="60" width="190" height="280" as="geometry" />
        </mxCell>
        <mxCell id="-KtRpZL5dUo9tvPGlUzb-31" style="edgeStyle=orthogonalEdgeStyle;rounded=0;orthogonalLoop=1;jettySize=auto;html=1;exitX=0.5;exitY=0;exitDx=0;exitDy=0;entryX=0.451;entryY=1.034;entryDx=0;entryDy=0;entryPerimeter=0;fontSize=12;fontColor=none;" edge="1" parent="1" source="-KtRpZL5dUo9tvPGlUzb-4" target="-KtRpZL5dUo9tvPGlUzb-7">
          <mxGeometry relative="1" as="geometry">
            <Array as="points">
              <mxPoint x="521" y="320" />
            </Array>
          </mxGeometry>
        </mxCell>
        <mxCell id="-KtRpZL5dUo9tvPGlUzb-4" value="&lt;br&gt;&lt;div style=&quot;font-family: &amp;#34;verdana&amp;#34; ; box-sizing: border-box ; width: 180px ; background: rgb(228 , 228 , 228) ; padding: 2px ; font-size: 14px&quot;&gt;&lt;b&gt;Clients&lt;/b&gt;&lt;/div&gt;&lt;table cellpadding=&quot;2&quot; cellspacing=&quot;0&quot; style=&quot;font-family: &amp;#34;verdana&amp;#34; ; width: 180px&quot;&gt;&lt;tbody&gt;&lt;tr&gt;&lt;td&gt;&lt;br&gt;&lt;/td&gt;&lt;td&gt;client_id&lt;span style=&quot;white-space: pre&quot;&gt;	&lt;/span&gt;&lt;/td&gt;&lt;/tr&gt;&lt;tr&gt;&lt;td&gt;&lt;span&gt;	&lt;/span&gt;&lt;br&gt;&lt;/td&gt;&lt;td&gt;&lt;br&gt;&lt;/td&gt;&lt;/tr&gt;&lt;tr&gt;&lt;td&gt;&lt;/td&gt;&lt;td&gt;client_company_name&lt;br&gt;client_activity&lt;br&gt;client tel&lt;/td&gt;&lt;/tr&gt;&lt;tr&gt;&lt;td&gt;&lt;br&gt;&lt;/td&gt;&lt;td&gt;client_company_email&lt;br&gt;&lt;/td&gt;&lt;/tr&gt;&lt;tr&gt;&lt;td&gt;&lt;br&gt;&lt;/td&gt;&lt;td&gt;add_client_notes&lt;/td&gt;&lt;/tr&gt;&lt;/tbody&gt;&lt;/table&gt;" style="verticalAlign=top;align=left;overflow=fill;html=1;rounded=0;shadow=0;comic=0;labelBackgroundColor=none;strokeWidth=1;fontFamily=Verdana;fontSize=12" vertex="1" parent="1">
          <mxGeometry x="415" y="320" width="270" height="180" as="geometry" />
        </mxCell>
        <mxCell id="-KtRpZL5dUo9tvPGlUzb-25" style="edgeStyle=orthogonalEdgeStyle;rounded=0;orthogonalLoop=1;jettySize=auto;html=1;exitX=1;exitY=0.75;exitDx=0;exitDy=0;entryX=1;entryY=0.25;entryDx=0;entryDy=0;fontSize=12;fontColor=none;" edge="1" parent="1" source="-KtRpZL5dUo9tvPGlUzb-6" target="2ed32ef02a7f4228-12">
          <mxGeometry relative="1" as="geometry">
            <Array as="points">
              <mxPoint x="220" y="400" />
              <mxPoint x="320" y="400" />
              <mxPoint x="320" y="550" />
              <mxPoint x="970" y="550" />
              <mxPoint x="970" y="130" />
            </Array>
          </mxGeometry>
        </mxCell>
        <mxCell id="-KtRpZL5dUo9tvPGlUzb-26" style="edgeStyle=orthogonalEdgeStyle;rounded=0;orthogonalLoop=1;jettySize=auto;html=1;exitX=0;exitY=0.75;exitDx=0;exitDy=0;fontSize=12;fontColor=none;entryX=-0.011;entryY=0.087;entryDx=0;entryDy=0;entryPerimeter=0;" edge="1" parent="1" source="-KtRpZL5dUo9tvPGlUzb-6" target="-KtRpZL5dUo9tvPGlUzb-6">
          <mxGeometry relative="1" as="geometry">
            <mxPoint x="30" y="80" as="targetPoint" />
            <Array as="points">
              <mxPoint y="385" />
              <mxPoint y="80" />
            </Array>
          </mxGeometry>
        </mxCell>
        <mxCell id="-KtRpZL5dUo9tvPGlUzb-28" style="edgeStyle=orthogonalEdgeStyle;rounded=0;orthogonalLoop=1;jettySize=auto;html=1;exitX=1;exitY=0.75;exitDx=0;exitDy=0;entryX=0;entryY=0.25;entryDx=0;entryDy=0;fontSize=12;fontColor=none;" edge="1" parent="1" source="-KtRpZL5dUo9tvPGlUzb-6" target="-KtRpZL5dUo9tvPGlUzb-4">
          <mxGeometry relative="1" as="geometry" />
        </mxCell>
        <mxCell id="-KtRpZL5dUo9tvPGlUzb-29" style="edgeStyle=orthogonalEdgeStyle;rounded=0;orthogonalLoop=1;jettySize=auto;html=1;exitX=1;exitY=0.25;exitDx=0;exitDy=0;entryX=0;entryY=0.25;entryDx=0;entryDy=0;fontSize=12;fontColor=none;" edge="1" parent="1" source="-KtRpZL5dUo9tvPGlUzb-6" target="-KtRpZL5dUo9tvPGlUzb-7">
          <mxGeometry relative="1" as="geometry" />
        </mxCell>
        <mxCell id="-KtRpZL5dUo9tvPGlUzb-6" value="&lt;br&gt;&lt;br&gt;&lt;div style=&quot;color: rgb(0 , 0 , 0) ; font-family: &amp;#34;verdana&amp;#34; ; font-style: normal ; letter-spacing: normal ; text-align: left ; text-indent: 0px ; text-transform: none ; word-spacing: 0px ; box-sizing: border-box ; width: 180px ; background: rgb(228 , 228 , 228) ; padding: 2px&quot;&gt;&lt;b&gt;&lt;font style=&quot;font-size: 14px&quot;&gt;Users&lt;/font&gt;&lt;/b&gt;&lt;/div&gt;&lt;table cellpadding=&quot;2&quot; cellspacing=&quot;0&quot; style=&quot;color: rgb(0 , 0 , 0) ; font-family: &amp;#34;verdana&amp;#34; ; font-size: 1em ; font-style: normal ; font-weight: 400 ; letter-spacing: normal ; text-align: left ; text-transform: none ; word-spacing: 0px ; background-color: rgb(248 , 249 , 250) ; width: 180px&quot;&gt;&lt;tbody&gt;&lt;tr&gt;&lt;td&gt;&lt;span&gt;	&lt;/span&gt;&lt;br&gt;&lt;/td&gt;&lt;td&gt;user_id&lt;span style=&quot;white-space: pre&quot;&gt;	&lt;/span&gt;&lt;span style=&quot;white-space: pre&quot;&gt;	&lt;/span&gt;&lt;br&gt;user_gender&lt;/td&gt;&lt;/tr&gt;&lt;tr&gt;&lt;td&gt;&lt;/td&gt;&lt;td&gt;user_first_name&lt;br&gt;user_last_name&lt;br&gt;user_address&lt;br&gt;user_country&lt;br&gt;user_nationality&lt;br&gt;user_passport&lt;br&gt;user_passport_file&lt;br&gt;user_current_location&lt;br&gt;user_date_of_birth&lt;br&gt;user_place_of_birth&lt;br&gt;user_email&lt;/td&gt;&lt;/tr&gt;&lt;tr&gt;&lt;td&gt;&lt;/td&gt;&lt;td&gt;&lt;/td&gt;&lt;/tr&gt;&lt;tr&gt;&lt;td&gt;&lt;br&gt;&lt;/td&gt;&lt;td&gt;user_pwd&lt;br&gt;&lt;/td&gt;&lt;/tr&gt;&lt;tr&gt;&lt;td&gt;&lt;br&gt;&lt;/td&gt;&lt;td&gt;get_new_pwd&lt;br&gt;is_available&lt;br&gt;user_category&lt;/td&gt;&lt;/tr&gt;&lt;tr&gt;&lt;td&gt;&lt;br&gt;&lt;/td&gt;&lt;td&gt;is_profile_complete&lt;br&gt;&lt;br&gt;is_admin&lt;br&gt;add_user_notes&lt;br&gt;profile_created_at&lt;br&gt;profile_uptaded_at&lt;br&gt;profile_deleted_at&lt;br&gt;user_cv&lt;br&gt;user_pp&lt;br&gt;&lt;br&gt;&lt;/td&gt;&lt;/tr&gt;&lt;/tbody&gt;&lt;/table&gt;" style="verticalAlign=top;align=left;overflow=fill;html=1;rounded=0;shadow=0;comic=0;labelBackgroundColor=none;strokeWidth=1;fontFamily=Verdana;fontSize=12" vertex="1" parent="1">
          <mxGeometry x="40" y="40" width="180" height="460" as="geometry" />
        </mxCell>
        <mxCell id="-KtRpZL5dUo9tvPGlUzb-30" style="edgeStyle=orthogonalEdgeStyle;rounded=0;orthogonalLoop=1;jettySize=auto;html=1;exitX=1;exitY=0.5;exitDx=0;exitDy=0;entryX=-0.006;entryY=0.142;entryDx=0;entryDy=0;entryPerimeter=0;fontSize=12;fontColor=none;" edge="1" parent="1" source="-KtRpZL5dUo9tvPGlUzb-7" target="2ed32ef02a7f4228-12">
          <mxGeometry relative="1" as="geometry" />
        </mxCell>
        <mxCell id="-KtRpZL5dUo9tvPGlUzb-32" style="edgeStyle=orthogonalEdgeStyle;rounded=0;orthogonalLoop=1;jettySize=auto;html=1;exitX=0.75;exitY=1;exitDx=0;exitDy=0;entryX=0.393;entryY=-0.001;entryDx=0;entryDy=0;entryPerimeter=0;fontSize=12;fontColor=none;" edge="1" parent="1" source="-KtRpZL5dUo9tvPGlUzb-7" target="-KtRpZL5dUo9tvPGlUzb-4">
          <mxGeometry relative="1" as="geometry">
            <Array as="points">
              <mxPoint x="521" y="250" />
            </Array>
          </mxGeometry>
        </mxCell>
        <mxCell id="-KtRpZL5dUo9tvPGlUzb-7" value="&lt;br&gt;&lt;br&gt;&lt;div style=&quot;color: rgb(0 , 0 , 0) ; font-family: &amp;#34;verdana&amp;#34; ; font-style: normal ; letter-spacing: normal ; text-align: left ; text-indent: 0px ; text-transform: none ; word-spacing: 0px ; box-sizing: border-box ; width: 180px ; background: rgb(228 , 228 , 228) ; padding: 2px ; font-size: 14px&quot;&gt;&lt;b&gt;&lt;font style=&quot;font-size: 14px&quot;&gt;Job Application&lt;/font&gt;&lt;/b&gt;&lt;/div&gt;&lt;table cellpadding=&quot;2&quot; cellspacing=&quot;0&quot; style=&quot;color: rgb(0 , 0 , 0) ; font-family: &amp;#34;verdana&amp;#34; ; font-style: normal ; font-weight: 400 ; letter-spacing: normal ; text-align: left ; text-transform: none ; word-spacing: 0px ; background-color: rgb(248 , 249 , 250) ; width: 180px&quot;&gt;&lt;tbody&gt;&lt;tr&gt;&lt;td&gt;&lt;span style=&quot;white-space: pre&quot;&gt;	&lt;/span&gt;&lt;br&gt;&lt;/td&gt;&lt;td&gt;job_id&lt;br&gt;user_id&lt;/td&gt;&lt;/tr&gt;&lt;tr&gt;&lt;td&gt;&lt;br&gt;&lt;/td&gt;&lt;td&gt;&lt;br&gt;&lt;/td&gt;&lt;/tr&gt;&lt;tr&gt;&lt;td&gt;&lt;/td&gt;&lt;td&gt;&lt;/td&gt;&lt;/tr&gt;&lt;tr&gt;&lt;td&gt;&lt;br&gt;&lt;/td&gt;&lt;td&gt;&lt;br&gt;&lt;/td&gt;&lt;/tr&gt;&lt;tr&gt;&lt;td&gt;&lt;/td&gt;&lt;td&gt;&lt;br&gt;&lt;br&gt;&lt;/td&gt;&lt;/tr&gt;&lt;/tbody&gt;&lt;/table&gt;" style="verticalAlign=top;align=left;overflow=fill;html=1;rounded=0;shadow=0;comic=0;labelBackgroundColor=none;strokeWidth=1;fontFamily=Verdana;fontSize=12" vertex="1" parent="1">
          <mxGeometry x="440" y="80" width="180" height="170" as="geometry" />
        </mxCell>
      </root>
    </mxGraphModel>
  </diagram>
</mxfile>
